<svg xmlns="http://www.w3.org/2000/svg" xmlns:xlink="http://www.w3.org/1999/xlink" width="780" zoomAndPan="magnify" viewBox="0 0 585 172.499995" height="230" preserveAspectRatio="xMidYMid meet" version="1.0"><defs><g/></defs><g fill="#6b6375" fill-opacity="1"><g transform="translate(121.523811, 121.448293)"><g><path d="M 105.90625 -89.90625 C 106 -89.90625 106.09375 -89.757812 106.1875 -89.46875 C 106.28125 -89.1875 106.328125 -89 106.328125 -88.90625 C 106.328125 -88.90625 106.328125 -88.859375 106.328125 -88.765625 C 106.328125 -88.671875 106.28125 -88.625 106.1875 -88.625 C 106 -88.53125 104.957031 -88.25 103.0625 -87.78125 C 101.175781 -87.3125 98.84375 -86.742188 96.0625 -86.078125 C 93.28125 -85.421875 90.332031 -84.757812 87.21875 -84.09375 C 84.101562 -83.4375 81.148438 -82.820312 78.359375 -82.25 C 75.578125 -81.6875 73.242188 -81.265625 71.359375 -80.984375 C 73.710938 -79.472656 75.8125 -76.898438 77.65625 -73.265625 C 79.5 -69.628906 80.960938 -65.6875 82.046875 -61.4375 C 83.128906 -57.195312 83.671875 -53.28125 83.671875 -49.6875 C 83.671875 -35.25 82.113281 -24.867188 79 -18.546875 C 75.882812 -12.222656 71.398438 -9.0625 65.546875 -9.0625 C 60.359375 -9.0625 56.347656 -13.96875 53.515625 -23.78125 C 50.679688 -33.601562 48.460938 -47.8125 46.859375 -66.40625 C 46.109375 -64.601562 45.425781 -61.71875 44.8125 -57.75 C 44.195312 -53.789062 43.535156 -49.265625 42.828125 -44.171875 C 42.117188 -39.078125 41.316406 -33.882812 40.421875 -28.59375 C 39.523438 -23.3125 38.4375 -18.425781 37.15625 -13.9375 C 35.882812 -9.457031 34.328125 -5.828125 32.484375 -3.046875 C 30.648438 -0.265625 28.457031 1.125 25.90625 1.125 C 23.832031 1.125 22.109375 0.394531 20.734375 -1.0625 C 19.367188 -2.519531 18.191406 -5.300781 17.203125 -9.40625 C 16.210938 -13.519531 15.289062 -19.539062 14.4375 -27.46875 C 13.59375 -35.394531 12.648438 -45.820312 11.609375 -58.75 C 10.566406 -70.832031 9.457031 -80.316406 8.28125 -87.203125 C 7.101562 -94.097656 5.757812 -98.960938 4.25 -101.796875 C 2.738281 -104.628906 0.945312 -106.046875 -1.125 -106.046875 C -3.019531 -106.046875 -4.4375 -105.710938 -5.375 -105.046875 C -6.320312 -104.390625 -7.003906 -103.707031 -7.421875 -103 C -7.847656 -102.289062 -8.347656 -101.9375 -8.921875 -101.9375 C -9.578125 -101.9375 -9.90625 -102.410156 -9.90625 -103.359375 C -9.90625 -104.109375 -8.9375 -105.046875 -7 -106.171875 C -5.070312 -107.304688 -3.113281 -107.875 -1.125 -107.875 C 1.414062 -107.875 3.535156 -107.09375 5.234375 -105.53125 C 6.929688 -103.976562 8.320312 -101.335938 9.40625 -97.609375 C 10.5 -93.890625 11.46875 -88.890625 12.3125 -82.609375 C 13.164062 -76.335938 14.015625 -68.429688 14.859375 -58.890625 C 15.804688 -48.515625 16.679688 -39.859375 17.484375 -32.921875 C 18.285156 -25.984375 19.039062 -20.390625 19.75 -16.140625 C 20.457031 -11.890625 21.140625 -8.703125 21.796875 -6.578125 C 22.460938 -4.453125 23.125 -3.035156 23.78125 -2.328125 C 24.445312 -1.628906 25.109375 -1.28125 25.765625 -1.28125 C 28.410156 -1.28125 30.601562 -3.023438 32.34375 -6.515625 C 34.09375 -10.003906 35.628906 -14.957031 36.953125 -21.375 C 38.273438 -27.789062 39.523438 -35.410156 40.703125 -44.234375 C 41.878906 -53.066406 43.175781 -62.816406 44.59375 -73.484375 C 44.875 -75.367188 45.179688 -76.664062 45.515625 -77.375 C 45.847656 -78.082031 46.296875 -78.4375 46.859375 -78.4375 C 47.617188 -78.4375 48.328125 -77.253906 48.984375 -74.890625 C 49.648438 -72.535156 50.171875 -69.515625 50.546875 -65.828125 C 51.679688 -54.785156 53 -45.160156 54.5 -36.953125 C 56.007812 -28.742188 57.734375 -22.375 59.671875 -17.84375 C 61.609375 -13.3125 63.660156 -11.046875 65.828125 -11.046875 C 67.722656 -11.046875 69.585938 -11.539062 71.421875 -12.53125 C 73.265625 -13.519531 74.960938 -15.382812 76.515625 -18.125 C 78.078125 -20.863281 79.328125 -24.734375 80.265625 -29.734375 C 81.210938 -34.734375 81.6875 -41.195312 81.6875 -49.125 C 81.6875 -52.90625 81.238281 -56.800781 80.34375 -60.8125 C 79.445312 -64.820312 78.125 -68.5 76.375 -71.84375 C 74.632812 -75.195312 72.441406 -77.722656 69.796875 -79.421875 C 69.046875 -79.898438 68.503906 -80.253906 68.171875 -80.484375 C 67.835938 -80.722656 67.671875 -81.171875 67.671875 -81.828125 C 67.671875 -81.828125 67.785156 -81.96875 68.015625 -82.25 C 68.253906 -82.539062 69.035156 -82.734375 70.359375 -82.828125 C 72.148438 -82.921875 74.460938 -83.222656 77.296875 -83.734375 C 80.128906 -84.253906 83.148438 -84.84375 86.359375 -85.5 C 89.566406 -86.164062 92.609375 -86.828125 95.484375 -87.484375 C 98.367188 -88.148438 100.753906 -88.71875 102.640625 -89.1875 C 104.523438 -89.664062 105.613281 -89.90625 105.90625 -89.90625 Z M 105.90625 -89.90625 "/></g></g></g><g fill="#6b6375" fill-opacity="1"><g transform="translate(222.182764, 121.448293)"><g><path d="M 23.078125 -42.46875 C 23.078125 -42.46875 23.125 -42.585938 23.21875 -42.828125 C 23.3125 -43.066406 23.546875 -43.1875 23.921875 -43.1875 C 24.585938 -43.1875 24.921875 -42.804688 24.921875 -42.046875 C 24.828125 -41.296875 24.632812 -39.925781 24.34375 -37.9375 C 24.0625 -35.957031 23.660156 -33.738281 23.140625 -31.28125 C 22.628906 -28.832031 21.921875 -26.472656 21.015625 -24.203125 C 20.117188 -21.941406 19.007812 -20.054688 17.6875 -18.546875 C 16.375 -17.035156 14.820312 -16.28125 13.03125 -16.28125 C 10.476562 -16.28125 8.328125 -17.25 6.578125 -19.1875 C 4.835938 -21.125 3.445312 -23.578125 2.40625 -26.546875 C 1.363281 -29.515625 0.5625 -32.578125 0 -35.734375 C -0.5625 -38.898438 -0.9375 -41.804688 -1.125 -44.453125 C -1.320312 -47.097656 -1.421875 -49.035156 -1.421875 -50.265625 C -1.421875 -53.660156 -0.878906 -56.066406 0.203125 -57.484375 C 1.296875 -58.898438 2.503906 -59.609375 3.828125 -59.609375 C 4.390625 -59.609375 5 -59.300781 5.65625 -58.6875 C 6.320312 -58.070312 6.65625 -56.960938 6.65625 -55.359375 C 6.65625 -54.222656 6.347656 -52.710938 5.734375 -50.828125 C 5.117188 -48.941406 4.429688 -47.097656 3.671875 -45.296875 C 2.921875 -43.503906 2.3125 -42.140625 1.84375 -41.203125 C 1.9375 -40.722656 2.097656 -39.632812 2.328125 -37.9375 C 2.566406 -36.238281 2.921875 -34.28125 3.390625 -32.0625 C 3.867188 -29.84375 4.507812 -27.671875 5.3125 -25.546875 C 6.113281 -23.429688 7.125 -21.664062 8.34375 -20.25 C 9.570312 -18.832031 11.085938 -18.125 12.890625 -18.125 C 14.492188 -18.125 15.859375 -18.945312 16.984375 -20.59375 C 18.117188 -22.25 19.085938 -24.28125 19.890625 -26.6875 C 20.691406 -29.09375 21.328125 -31.5 21.796875 -33.90625 C 22.273438 -36.3125 22.609375 -38.335938 22.796875 -39.984375 C 22.984375 -41.640625 23.078125 -42.46875 23.078125 -42.46875 Z M 1.84375 -44.453125 C 2.3125 -46.054688 2.921875 -48.035156 3.671875 -50.390625 C 4.429688 -52.753906 4.8125 -54.410156 4.8125 -55.359375 C 4.8125 -55.734375 4.738281 -56.226562 4.59375 -56.84375 C 4.457031 -57.457031 4.203125 -57.765625 3.828125 -57.765625 C 3.253906 -57.765625 2.78125 -57.03125 2.40625 -55.5625 C 2.03125 -54.101562 1.84375 -52.429688 1.84375 -50.546875 Z M 1.84375 -44.453125 "/></g></g></g><g fill="#6b6375" fill-opacity="1"><g transform="translate(243.560286, 121.448293)"><g><path d="M 19.25 -51.953125 C 16.707031 -51.953125 14.179688 -51.644531 11.671875 -51.03125 C 9.171875 -50.425781 7.117188 -49.414062 5.515625 -48 C 3.910156 -46.582031 3.109375 -44.738281 3.109375 -42.46875 C 3.109375 -41.53125 3.4375 -40.515625 4.09375 -39.421875 C 4.757812 -38.335938 5.753906 -37.796875 7.078125 -37.796875 C 8.867188 -37.796875 10.6875 -38.925781 12.53125 -41.1875 C 14.375 -43.457031 16.613281 -47.046875 19.25 -51.953125 Z M 37.375 -102.921875 C 36.71875 -102.921875 35.890625 -101.953125 34.890625 -100.015625 C 33.898438 -98.085938 32.910156 -95.519531 31.921875 -92.3125 C 30.929688 -89.101562 30.007812 -85.632812 29.15625 -81.90625 C 28.3125 -78.175781 27.601562 -74.46875 27.03125 -70.78125 C 26.46875 -67.101562 26.140625 -63.847656 26.046875 -61.015625 C 29.640625 -67.335938 32.285156 -72.785156 33.984375 -77.359375 C 35.679688 -81.941406 36.8125 -86.003906 37.375 -89.546875 C 37.9375 -93.085938 38.21875 -96.460938 38.21875 -99.671875 C 38.21875 -100.421875 38.171875 -101.148438 38.078125 -101.859375 C 37.984375 -102.566406 37.75 -102.921875 37.375 -102.921875 Z M 62.578125 -41.765625 C 62.578125 -41.765625 62.269531 -40.867188 61.65625 -39.078125 C 61.039062 -37.285156 60.164062 -34.972656 59.03125 -32.140625 C 57.90625 -29.304688 56.585938 -26.332031 55.078125 -23.21875 C 53.566406 -20.101562 51.910156 -17.148438 50.109375 -14.359375 C 48.316406 -11.578125 46.40625 -9.289062 44.375 -7.5 C 42.351562 -5.707031 40.300781 -4.8125 38.21875 -4.8125 C 35.394531 -4.8125 33.128906 -6.128906 31.421875 -8.765625 C 29.722656 -11.410156 28.378906 -14.8125 27.390625 -18.96875 C 26.398438 -23.125 25.644531 -27.609375 25.125 -32.421875 C 24.601562 -37.234375 24.15625 -41.8125 23.78125 -46.15625 L 23.078125 -54.9375 C 21.566406 -52.476562 20.03125 -49.757812 18.46875 -46.78125 C 16.914062 -43.8125 15.242188 -41.265625 13.453125 -39.140625 C 11.660156 -37.015625 9.535156 -35.953125 7.078125 -35.953125 C 5.285156 -35.953125 3.632812 -36.378906 2.125 -37.234375 C 0.613281 -38.085938 -0.140625 -39.832031 -0.140625 -42.46875 C -0.140625 -45.488281 1.484375 -48.082031 4.734375 -50.25 C 7.992188 -52.425781 12.125 -53.515625 17.125 -53.515625 C 17.695312 -53.515625 18.238281 -53.515625 18.75 -53.515625 C 19.269531 -53.515625 19.722656 -53.421875 20.109375 -53.234375 L 22.9375 -57.90625 C 22.9375 -60.832031 23.144531 -64.300781 23.5625 -68.3125 C 23.988281 -72.320312 24.601562 -76.425781 25.40625 -80.625 C 26.207031 -84.820312 27.175781 -88.757812 28.3125 -92.4375 C 29.445312 -96.125 30.789062 -99.097656 32.34375 -101.359375 C 33.90625 -103.628906 35.582031 -104.765625 37.375 -104.765625 C 38.601562 -104.765625 39.359375 -104.175781 39.640625 -103 C 39.921875 -101.820312 40.0625 -100.664062 40.0625 -99.53125 C 40.0625 -95.945312 39.726562 -92.242188 39.0625 -88.421875 C 38.40625 -84.597656 37.085938 -80.226562 35.109375 -75.3125 C 33.128906 -70.40625 30.109375 -64.507812 26.046875 -57.625 C 26.234375 -55.539062 26.492188 -52.46875 26.828125 -48.40625 C 27.160156 -44.351562 27.609375 -39.96875 28.171875 -35.25 C 28.742188 -30.53125 29.476562 -25.972656 30.375 -21.578125 C 31.269531 -17.191406 32.351562 -13.609375 33.625 -10.828125 C 34.894531 -8.046875 36.425781 -6.65625 38.21875 -6.65625 C 40.113281 -6.65625 41.976562 -7.503906 43.8125 -9.203125 C 45.65625 -10.898438 47.398438 -13.117188 49.046875 -15.859375 C 50.703125 -18.597656 52.257812 -21.476562 53.71875 -24.5 C 55.1875 -27.519531 56.4375 -30.394531 57.46875 -33.125 C 58.507812 -35.863281 59.335938 -38.101562 59.953125 -39.84375 C 60.566406 -41.59375 60.875 -42.46875 60.875 -42.46875 C 60.96875 -42.851562 61.300781 -43.046875 61.875 -43.046875 C 62.25 -43.046875 62.484375 -42.878906 62.578125 -42.546875 C 62.671875 -42.210938 62.671875 -41.953125 62.578125 -41.765625 Z M 62.578125 -41.765625 "/></g></g></g><g fill="#6b6375" fill-opacity="1"><g transform="translate(302.738064, 121.448293)"><g><path d="M 19.25 -51.953125 C 16.707031 -51.953125 14.179688 -51.644531 11.671875 -51.03125 C 9.171875 -50.425781 7.117188 -49.414062 5.515625 -48 C 3.910156 -46.582031 3.109375 -44.738281 3.109375 -42.46875 C 3.109375 -41.53125 3.4375 -40.515625 4.09375 -39.421875 C 4.757812 -38.335938 5.753906 -37.796875 7.078125 -37.796875 C 8.867188 -37.796875 10.6875 -38.925781 12.53125 -41.1875 C 14.375 -43.457031 16.613281 -47.046875 19.25 -51.953125 Z M 37.375 -102.921875 C 36.71875 -102.921875 35.890625 -101.953125 34.890625 -100.015625 C 33.898438 -98.085938 32.910156 -95.519531 31.921875 -92.3125 C 30.929688 -89.101562 30.007812 -85.632812 29.15625 -81.90625 C 28.3125 -78.175781 27.601562 -74.46875 27.03125 -70.78125 C 26.46875 -67.101562 26.140625 -63.847656 26.046875 -61.015625 C 29.640625 -67.335938 32.285156 -72.785156 33.984375 -77.359375 C 35.679688 -81.941406 36.8125 -86.003906 37.375 -89.546875 C 37.9375 -93.085938 38.21875 -96.460938 38.21875 -99.671875 C 38.21875 -100.421875 38.171875 -101.148438 38.078125 -101.859375 C 37.984375 -102.566406 37.75 -102.921875 37.375 -102.921875 Z M 62.578125 -41.765625 C 62.578125 -41.765625 62.269531 -40.867188 61.65625 -39.078125 C 61.039062 -37.285156 60.164062 -34.972656 59.03125 -32.140625 C 57.90625 -29.304688 56.585938 -26.332031 55.078125 -23.21875 C 53.566406 -20.101562 51.910156 -17.148438 50.109375 -14.359375 C 48.316406 -11.578125 46.40625 -9.289062 44.375 -7.5 C 42.351562 -5.707031 40.300781 -4.8125 38.21875 -4.8125 C 35.394531 -4.8125 33.128906 -6.128906 31.421875 -8.765625 C 29.722656 -11.410156 28.378906 -14.8125 27.390625 -18.96875 C 26.398438 -23.125 25.644531 -27.609375 25.125 -32.421875 C 24.601562 -37.234375 24.15625 -41.8125 23.78125 -46.15625 L 23.078125 -54.9375 C 21.566406 -52.476562 20.03125 -49.757812 18.46875 -46.78125 C 16.914062 -43.8125 15.242188 -41.265625 13.453125 -39.140625 C 11.660156 -37.015625 9.535156 -35.953125 7.078125 -35.953125 C 5.285156 -35.953125 3.632812 -36.378906 2.125 -37.234375 C 0.613281 -38.085938 -0.140625 -39.832031 -0.140625 -42.46875 C -0.140625 -45.488281 1.484375 -48.082031 4.734375 -50.25 C 7.992188 -52.425781 12.125 -53.515625 17.125 -53.515625 C 17.695312 -53.515625 18.238281 -53.515625 18.75 -53.515625 C 19.269531 -53.515625 19.722656 -53.421875 20.109375 -53.234375 L 22.9375 -57.90625 C 22.9375 -60.832031 23.144531 -64.300781 23.5625 -68.3125 C 23.988281 -72.320312 24.601562 -76.425781 25.40625 -80.625 C 26.207031 -84.820312 27.175781 -88.757812 28.3125 -92.4375 C 29.445312 -96.125 30.789062 -99.097656 32.34375 -101.359375 C 33.90625 -103.628906 35.582031 -104.765625 37.375 -104.765625 C 38.601562 -104.765625 39.359375 -104.175781 39.640625 -103 C 39.921875 -101.820312 40.0625 -100.664062 40.0625 -99.53125 C 40.0625 -95.945312 39.726562 -92.242188 39.0625 -88.421875 C 38.40625 -84.597656 37.085938 -80.226562 35.109375 -75.3125 C 33.128906 -70.40625 30.109375 -64.507812 26.046875 -57.625 C 26.234375 -55.539062 26.492188 -52.46875 26.828125 -48.40625 C 27.160156 -44.351562 27.609375 -39.96875 28.171875 -35.25 C 28.742188 -30.53125 29.476562 -25.972656 30.375 -21.578125 C 31.269531 -17.191406 32.351562 -13.609375 33.625 -10.828125 C 34.894531 -8.046875 36.425781 -6.65625 38.21875 -6.65625 C 40.113281 -6.65625 41.976562 -7.503906 43.8125 -9.203125 C 45.65625 -10.898438 47.398438 -13.117188 49.046875 -15.859375 C 50.703125 -18.597656 52.257812 -21.476562 53.71875 -24.5 C 55.1875 -27.519531 56.4375 -30.394531 57.46875 -33.125 C 58.507812 -35.863281 59.335938 -38.101562 59.953125 -39.84375 C 60.566406 -41.59375 60.875 -42.46875 60.875 -42.46875 C 60.96875 -42.851562 61.300781 -43.046875 61.875 -43.046875 C 62.25 -43.046875 62.484375 -42.878906 62.578125 -42.546875 C 62.671875 -42.210938 62.671875 -41.953125 62.578125 -41.765625 Z M 62.578125 -41.765625 "/></g></g></g><g fill="#6b6375" fill-opacity="1"><g transform="translate(361.915842, 121.448293)"><g><path d="M 2.265625 -59.75 C 3.015625 -59.75 3.625 -59.441406 4.09375 -58.828125 C 4.570312 -58.210938 4.8125 -57.671875 4.8125 -57.203125 C 4.8125 -55.503906 3.960938 -54.65625 2.265625 -54.65625 C 1.609375 -54.65625 1.019531 -54.890625 0.5 -55.359375 C -0.0195312 -55.828125 -0.28125 -56.441406 -0.28125 -57.203125 C -0.28125 -57.671875 -0.117188 -58.210938 0.203125 -58.828125 C 0.535156 -59.441406 1.222656 -59.75 2.265625 -59.75 Z M 5.65625 -20.671875 C 7.070312 -20.671875 8.414062 -21.492188 9.6875 -23.140625 C 10.96875 -24.796875 12.125 -26.847656 13.15625 -29.296875 C 14.195312 -31.753906 15.09375 -34.1875 15.84375 -36.59375 C 16.601562 -39 17.128906 -40.957031 17.421875 -42.46875 C 17.515625 -42.945312 17.84375 -43.1875 18.40625 -43.1875 C 18.78125 -43.1875 18.96875 -42.945312 18.96875 -42.46875 C 18.96875 -42.09375 18.78125 -41.054688 18.40625 -39.359375 C 18.03125 -37.660156 17.460938 -35.65625 16.703125 -33.34375 C 15.953125 -31.03125 15.03125 -28.765625 13.9375 -26.546875 C 12.851562 -24.328125 11.601562 -22.484375 10.1875 -21.015625 C 8.769531 -19.554688 7.164062 -18.828125 5.375 -18.828125 C 3.863281 -18.828125 2.707031 -19.648438 1.90625 -21.296875 C 1.101562 -22.953125 0.535156 -25.003906 0.203125 -27.453125 C -0.117188 -29.910156 -0.28125 -32.367188 -0.28125 -34.828125 C -0.28125 -38.597656 -0.140625 -41.59375 0.140625 -43.8125 C 0.421875 -46.03125 1.035156 -47.140625 1.984375 -47.140625 C 3.117188 -47.140625 3.6875 -46.625 3.6875 -45.59375 C 3.59375 -44.644531 3.445312 -43.109375 3.25 -40.984375 C 3.0625 -38.859375 2.96875 -36.570312 2.96875 -34.125 C 2.96875 -30.914062 3.15625 -27.867188 3.53125 -24.984375 C 3.914062 -22.109375 4.625 -20.671875 5.65625 -20.671875 Z M 5.65625 -20.671875 "/></g></g></g><g fill="#6b6375" fill-opacity="1"><g transform="translate(377.630408, 121.448293)"><g><path d="M 48.5625 -41.90625 C 48.375 -41.25 47.804688 -39.71875 46.859375 -37.3125 C 45.921875 -34.90625 44.648438 -32.140625 43.046875 -29.015625 C 41.441406 -25.898438 39.550781 -22.859375 37.375 -19.890625 C 35.207031 -16.921875 32.820312 -14.46875 30.21875 -12.53125 C 27.625 -10.59375 24.863281 -9.625 21.9375 -9.625 C 20.144531 -9.625 18.988281 -11.0625 18.46875 -13.9375 C 17.957031 -16.820312 17.703125 -20.101562 17.703125 -23.78125 C 17.703125 -26.144531 17.722656 -28.484375 17.765625 -30.796875 C 17.816406 -33.109375 17.84375 -35.113281 17.84375 -36.8125 C 17.84375 -38.132812 17.796875 -39.21875 17.703125 -40.0625 C 17.609375 -40.914062 17.367188 -41.34375 16.984375 -41.34375 C 16.421875 -41.34375 15.757812 -40.5625 15 -39 C 14.25 -37.445312 13.445312 -35.515625 12.59375 -33.203125 C 11.75 -30.890625 10.851562 -28.550781 9.90625 -26.1875 C 8.96875 -23.832031 7.976562 -21.875 6.9375 -20.3125 C 5.894531 -18.757812 4.859375 -17.984375 3.828125 -17.984375 C 3.066406 -17.984375 2.332031 -18.359375 1.625 -19.109375 C 0.914062 -19.867188 0.515625 -21.566406 0.421875 -24.203125 C 0.421875 -26.097656 0.375 -28.203125 0.28125 -30.515625 C 0.1875 -32.828125 0.113281 -34.992188 0.0625 -37.015625 C 0.0195312 -39.046875 0 -40.582031 0 -41.625 C 0 -42.46875 0.1875 -43.007812 0.5625 -43.25 C 0.9375 -43.488281 1.316406 -43.609375 1.703125 -43.609375 C 2.828125 -43.609375 3.390625 -42.804688 3.390625 -41.203125 C 3.390625 -38.367188 3.460938 -35.109375 3.609375 -31.421875 C 3.753906 -27.742188 3.828125 -24.820312 3.828125 -22.65625 C 3.828125 -20.769531 3.921875 -19.828125 4.109375 -19.828125 C 4.671875 -19.828125 5.304688 -20.601562 6.015625 -22.15625 C 6.722656 -23.71875 7.5 -25.65625 8.34375 -27.96875 C 9.195312 -30.28125 10.117188 -32.613281 11.109375 -34.96875 C 12.097656 -37.332031 13.113281 -39.289062 14.15625 -40.84375 C 15.195312 -42.40625 16.285156 -43.1875 17.421875 -43.1875 C 18.359375 -43.1875 19.203125 -42.925781 19.953125 -42.40625 C 20.710938 -41.882812 21.09375 -40.394531 21.09375 -37.9375 L 21.09375 -33.546875 C 21.09375 -32.140625 21.066406 -30.628906 21.015625 -29.015625 C 20.972656 -27.410156 20.953125 -25.804688 20.953125 -24.203125 C 20.953125 -20.804688 21.019531 -17.832031 21.15625 -15.28125 C 21.300781 -12.738281 21.847656 -11.46875 22.796875 -11.46875 C 24.960938 -11.46875 27.25 -12.429688 29.65625 -14.359375 C 32.0625 -16.296875 34.394531 -18.847656 36.65625 -22.015625 C 38.925781 -25.179688 40.957031 -28.554688 42.75 -32.140625 C 44.550781 -35.722656 45.921875 -39.164062 46.859375 -42.46875 C 47.046875 -42.851562 47.425781 -43.046875 48 -43.046875 C 48.5625 -43.046875 48.75 -42.664062 48.5625 -41.90625 Z M 48.5625 -41.90625 "/></g></g></g><g fill="#6b6375" fill-opacity="1"><g transform="translate(423.358683, 121.448293)"><g><path d="M 11.890625 -17.703125 C 8.679688 -14.203125 5.96875 -10.585938 3.75 -6.859375 C 1.53125 -3.140625 -0.117188 0.25 -1.203125 3.3125 C -2.285156 6.382812 -2.828125 8.820312 -2.828125 10.625 C -2.828125 12.695312 -2.304688 14.460938 -1.265625 15.921875 C -0.234375 17.390625 1.316406 18.125 3.390625 18.125 C 6.503906 18.125 8.910156 16.613281 10.609375 13.59375 C 12.316406 10.570312 13.171875 6.890625 13.171875 2.546875 C 13.171875 0.191406 13.097656 -2.515625 12.953125 -5.578125 C 12.804688 -8.648438 12.453125 -12.691406 11.890625 -17.703125 Z M 13.171875 -38.515625 L 14.578125 -22.515625 C 14.578125 -22.515625 15.191406 -23.171875 16.421875 -24.484375 C 17.648438 -25.804688 19.160156 -27.484375 20.953125 -29.515625 C 22.742188 -31.546875 24.5625 -33.550781 26.40625 -35.53125 C 28.25 -37.519531 29.851562 -39.171875 31.21875 -40.484375 C 32.582031 -41.804688 33.410156 -42.46875 33.703125 -42.46875 C 34.171875 -42.46875 34.40625 -42.328125 34.40625 -42.046875 C 34.40625 -41.859375 34.359375 -41.597656 34.265625 -41.265625 C 34.171875 -40.941406 33.929688 -40.632812 33.546875 -40.34375 L 14.859375 -20.53125 C 15.617188 -13.070312 16.066406 -7.546875 16.203125 -3.953125 C 16.347656 -0.367188 16.421875 1.796875 16.421875 2.546875 C 16.421875 7.265625 15.21875 11.347656 12.8125 14.796875 C 10.40625 18.242188 7.316406 19.96875 3.546875 19.96875 C 1.179688 19.96875 -0.773438 19.257812 -2.328125 17.84375 C -3.890625 16.425781 -4.671875 13.972656 -4.671875 10.484375 C -4.671875 7.078125 -3.347656 2.734375 -0.703125 -2.546875 C 1.929688 -7.835938 5.988281 -13.546875 11.46875 -19.671875 L 10.484375 -34.546875 C 8.585938 -30.390625 6.507812 -28.3125 4.25 -28.3125 C 2.925781 -28.3125 1.601562 -29.113281 0.28125 -30.71875 C -1.039062 -32.320312 -1.703125 -34.875 -1.703125 -38.375 C -1.703125 -41.863281 -0.570312 -44.316406 1.6875 -45.734375 C 3.957031 -47.148438 6.460938 -47.859375 9.203125 -47.859375 C 10.523438 -47.859375 12.054688 -47.550781 13.796875 -46.9375 C 15.546875 -46.320312 16.421875 -45.585938 16.421875 -44.734375 C 16.421875 -44.359375 16.140625 -44.171875 15.578125 -44.171875 C 14.816406 -44.171875 14.15625 -44.738281 13.59375 -45.875 L 13.59375 -44.171875 C 13.59375 -43.609375 13.566406 -42.851562 13.515625 -41.90625 C 13.472656 -40.957031 13.359375 -39.828125 13.171875 -38.515625 Z M 9.90625 -38.796875 C 9.90625 -39.734375 10 -40.976562 10.1875 -42.53125 C 10.382812 -44.09375 10.484375 -45.207031 10.484375 -45.875 L 9.0625 -45.875 C 6.988281 -45.875 5.21875 -45.351562 3.75 -44.3125 C 2.289062 -43.269531 1.5625 -41.335938 1.5625 -38.515625 C 1.5625 -36.804688 1.84375 -34.984375 2.40625 -33.046875 C 2.96875 -31.117188 3.582031 -30.15625 4.25 -30.15625 C 5.289062 -30.15625 6.375 -30.957031 7.5 -32.5625 C 8.632812 -34.164062 9.4375 -36.242188 9.90625 -38.796875 Z M 9.90625 -38.796875 "/></g></g></g></svg>